<svg width="199" height="19" viewBox="0 0 199 19" fill="none" xmlns="http://www.w3.org/2000/svg">
<path d="M10.6641 10.9453L8.05078 3.33984L5.27344 10.9453H10.6641ZM6.83203 0.785156H9.46875L15.7148 18H13.1602L11.4141 12.8438H4.60547L2.74219 18H0.351562L6.83203 0.785156ZM25.8398 8.67188C26.9336 8.67188 27.7969 8.45312 28.4297 8.01562C29.0703 7.57812 29.3906 6.78906 29.3906 5.64844C29.3906 4.42188 28.9453 3.58594 28.0547 3.14062C27.5781 2.90625 26.9414 2.78906 26.1445 2.78906H20.4492V8.67188H25.8398ZM18.1172 0.785156H26.0859C27.3984 0.785156 28.4805 0.976562 29.332 1.35938C30.9492 2.09375 31.7578 3.44922 31.7578 5.42578C31.7578 6.45703 31.543 7.30078 31.1133 7.95703C30.6914 8.61328 30.0977 9.14062 29.332 9.53906C30.0039 9.8125 30.5078 10.1719 30.8438 10.6172C31.1875 11.0625 31.3789 11.7852 31.418 12.7852L31.5 15.0938C31.5234 15.75 31.5781 16.2383 31.6641 16.5586C31.8047 17.1055 32.0547 17.457 32.4141 17.6133V18H29.5547C29.4766 17.8516 29.4141 17.6602 29.3672 17.4258C29.3203 17.1914 29.2812 16.7383 29.25 16.0664L29.1094 13.1953C29.0547 12.0703 28.6367 11.3164 27.8555 10.9336C27.4102 10.7227 26.7109 10.6172 25.7578 10.6172H20.4492V18H18.1172V0.785156ZM35.1211 0.785156H38.4609L43.4062 15.3398L48.3164 0.785156H51.6211V18H49.4062V7.83984C49.4062 7.48828 49.4141 6.90625 49.4297 6.09375C49.4453 5.28125 49.4531 4.41016 49.4531 3.48047L44.543 18H42.2344L37.2891 3.48047V4.00781C37.2891 4.42969 37.2969 5.07422 37.3125 5.94141C37.3359 6.80078 37.3477 7.43359 37.3477 7.83984V18H35.1211V0.785156ZM64.0078 10.9453L61.3945 3.33984L58.6172 10.9453H64.0078ZM60.1758 0.785156H62.8125L69.0586 18H66.5039L64.7578 12.8438H57.9492L56.0859 18H53.6953L60.1758 0.785156ZM78.6211 0.339844C80.2383 0.339844 81.6367 0.652344 82.8164 1.27734C84.5273 2.17578 85.5742 3.75 85.957 6H83.6484C83.3672 4.74219 82.7852 3.82812 81.9023 3.25781C81.0195 2.67969 79.9062 2.39062 78.5625 2.39062C76.9688 2.39062 75.625 2.98828 74.5312 4.18359C73.4453 5.37891 72.9023 7.16016 72.9023 9.52734C72.9023 11.5742 73.3516 13.2422 74.25 14.5312C75.1484 15.8125 76.6133 16.4531 78.6445 16.4531C80.1992 16.4531 81.4844 16.0039 82.5 15.1055C83.5234 14.1992 84.0469 12.7383 84.0703 10.7227H78.6797V8.78906H86.2383V18H84.7383L84.1758 15.7852C83.3867 16.6523 82.6875 17.2539 82.0781 17.5898C81.0547 18.168 79.7539 18.457 78.1758 18.457C76.1367 18.457 74.3828 17.7969 72.9141 16.4766C71.3125 14.8203 70.5117 12.5469 70.5117 9.65625C70.5117 6.77344 71.293 4.48047 72.8555 2.77734C74.3398 1.15234 76.2617 0.339844 78.6211 0.339844ZM97.3008 0.339844C98.918 0.339844 100.316 0.652344 101.496 1.27734C103.207 2.17578 104.254 3.75 104.637 6H102.328C102.047 4.74219 101.465 3.82812 100.582 3.25781C99.6992 2.67969 98.5859 2.39062 97.2422 2.39062C95.6484 2.39062 94.3047 2.98828 93.2109 4.18359C92.125 5.37891 91.582 7.16016 91.582 9.52734C91.582 11.5742 92.0312 13.2422 92.9297 14.5312C93.8281 15.8125 95.293 16.4531 97.3242 16.4531C98.8789 16.4531 100.164 16.0039 101.18 15.1055C102.203 14.1992 102.727 12.7383 102.75 10.7227H97.3594V8.78906H104.918V18H103.418L102.855 15.7852C102.066 16.6523 101.367 17.2539 100.758 17.5898C99.7344 18.168 98.4336 18.457 96.8555 18.457C94.8164 18.457 93.0625 17.7969 91.5938 16.4766C89.9922 14.8203 89.1914 12.5469 89.1914 9.65625C89.1914 6.77344 89.9727 4.48047 91.5352 2.77734C93.0195 1.15234 94.9414 0.339844 97.3008 0.339844ZM108.762 0.785156H121.312V2.89453H111.035V8.12109H120.539V10.1133H111.035V15.9492H121.488V18H108.762V0.785156ZM131.156 16.0078C131.945 16.0078 132.594 15.9258 133.102 15.7617C134.008 15.457 134.75 14.8711 135.328 14.0039C135.789 13.3086 136.121 12.418 136.324 11.332C136.441 10.6836 136.5 10.082 136.5 9.52734C136.5 7.39453 136.074 5.73828 135.223 4.55859C134.379 3.37891 133.016 2.78906 131.133 2.78906H126.996V16.0078H131.156ZM124.652 0.785156H131.625C133.992 0.785156 135.828 1.625 137.133 3.30469C138.297 4.82031 138.879 6.76172 138.879 9.12891C138.879 10.957 138.535 12.6094 137.848 14.0859C136.637 16.6953 134.555 18 131.602 18H124.652V0.785156ZM149.32 0.316406C152.359 0.316406 154.609 1.29297 156.07 3.24609C157.211 4.76953 157.781 6.71875 157.781 9.09375C157.781 11.6641 157.129 13.8008 155.824 15.5039C154.293 17.5039 152.109 18.5039 149.273 18.5039C146.625 18.5039 144.543 17.6289 143.027 15.8789C141.676 14.1914 141 12.0586 141 9.48047C141 7.15234 141.578 5.16016 142.734 3.50391C144.219 1.37891 146.414 0.316406 149.32 0.316406ZM149.555 16.418C151.609 16.418 153.094 15.6836 154.008 14.2148C154.93 12.7383 155.391 11.043 155.391 9.12891C155.391 7.10547 154.859 5.47656 153.797 4.24219C152.742 3.00781 151.297 2.39062 149.461 2.39062C147.68 2.39062 146.227 3.00391 145.102 4.23047C143.977 5.44922 143.414 7.25 143.414 9.63281C143.414 11.5391 143.895 13.1484 144.855 14.4609C145.824 15.7656 147.391 16.418 149.555 16.418ZM160.57 0.785156H163.324L172.02 14.7305V0.785156H174.234V18H171.621L162.797 4.06641V18H160.57V0.785156ZM185.953 0.785156L190.898 15.4453L195.785 0.785156H198.398L192.117 18H189.645L183.375 0.785156H185.953Z" fill="black"/>
</svg>
